solid OBJECT
  facet normal -0.2810846379406744 0.67859834449907108 -0.67859834449907108
    outer loop
      vertex 0 3 -2
      vertex -1.7677669525146484 4.2677669525146484 0
      vertex 0 5 0
    endloop
  endfacet
  facet normal -0.28108460707548028 0.67859836902102533 -0.67859833276189763
    outer loop
      vertex -1.7677669525146484 4.2677669525146484 0
      vertex 0 3 -2
      vertex -0.70710676908493042 2.7071068286895752 -2
    endloop
  endfacet
  facet normal -0.28108467176154589 0.67859833470221353 -0.67859834028686417
    outer loop
      vertex -0.70710676908493042 2.7071068286895752 -2
      vertex -2.8284270763397217 2.8284270763397217 -1
      vertex -1.7677669525146484 4.2677669525146484 0
    endloop
  endfacet
  facet normal -0.28108463101977227 0.67859842682766836 -0.67859826503719556
    outer loop
      vertex -0.70710676908493042 2.7071068286895752 -2
      vertex -1.4142135381698608 2.4142136573791504 -2
      vertex -2.8284270763397217 2.8284270763397217 -1
    endloop
  endfacet
  facet normal -0.28108479545761828 0.67859821422705646 -0.67859840952539718
    outer loop
      vertex -2.8284270763397217 2.8284270763397217 -1
      vertex -1.4142135381698608 2.4142136573791504 -2
      vertex -2.1213202476501465 2.1213202476501465 -2
    endloop
  endfacet
  facet normal -0.28108462921201016 0.67859832342621162 -0.67859836918746086
    outer loop
      vertex -3.5355339050292969 3.5355339050292969 0
      vertex -1.7677669525146484 4.2677669525146484 0
      vertex -2.8284270763397217 2.8284270763397217 -1
    endloop
  endfacet
  facet normal -0.67859834141302022 0.28108469708450556 -0.67859832308694235
    outer loop
      vertex -4.2677669525146484 1.7677669525146484 0
      vertex -2.8284270763397217 2.8284270763397217 -1
      vertex -2.4142136573791504 1.4142135381698608 -2
    endloop
  endfacet
  facet normal -0.67859821422705646 0.28108479545761828 -0.67859840952539718
    outer loop
      vertex -2.8284270763397217 2.8284270763397217 -1
      vertex -2.1213202476501465 2.1213202476501465 -2
      vertex -2.4142136573791504 1.4142135381698608 -2
    endloop
  endfacet
  facet normal -0.67859832342621162 0.28108462921201016 -0.67859836918746086
    outer loop
      vertex -4.2677669525146484 1.7677669525146484 0
      vertex -3.5355339050292969 3.5355339050292969 0
      vertex -2.8284270763397217 2.8284270763397217 -1
    endloop
  endfacet
  facet normal -0.67859834449907097 0.28108463794067434 -0.67859834449907097
    outer loop
      vertex -4 1.9900511023636733e-16 -1
      vertex -5 3.0616169991140216e-16 0
      vertex -4.2677669525146484 1.7677669525146484 0
    endloop
  endfacet
  facet normal -0.67859835232385235 0.28108460015928582 -0.67859835232385235
    outer loop
      vertex -3 9.1848507326442689e-17 -2
      vertex -4 1.9900511023636733e-16 -1
      vertex -2.7071068286895752 0.70710676908493042 -2
    endloop
  endfacet
  facet normal -0.67859835627596432 0.28108463109810367 -0.67859833555646343
    outer loop
      vertex -4.2677669525146484 1.7677669525146484 0
      vertex -2.7071068286895752 0.70710676908493042 -2
      vertex -4 1.9900511023636733e-16 -1
    endloop
  endfacet
  facet normal -0.67859836902102533 0.28108460707548028 -0.67859833276189763
    outer loop
      vertex -2.4142136573791504 1.4142135381698608 -2
      vertex -2.7071068286895752 0.70710676908493042 -2
      vertex -4.2677669525146484 1.7677669525146484 0
    endloop
  endfacet
  facet normal -0.67859835232385235 -0.28108460015928588 -0.67859835232385224
    outer loop
      vertex -2.4142136573791504 -1.4142135381698608 -2
      vertex -4 1.9900511023636733e-16 -1
      vertex -2.7071068286895752 -0.70710676908493042 -2
    endloop
  endfacet
  facet normal -0.67859835232385235 -0.28108460015928577 -0.67859835232385235
    outer loop
      vertex -4 1.9900511023636733e-16 -1
      vertex -3 9.1848507326442689e-17 -2
      vertex -2.7071068286895752 -0.70710676908493042 -2
    endloop
  endfacet
  facet normal -0.67859834449907108 -0.28108463794067434 -0.67859834449907108
    outer loop
      vertex -4.2677669525146484 -1.7677669525146484 0
      vertex -5 3.0616169991140216e-16 0
      vertex -4 1.9900511023636733e-16 -1
    endloop
  endfacet
  facet normal -0.67859832342621162 -0.28108462921201016 -0.67859836918746086
    outer loop
      vertex -2.1213202476501465 -2.1213202476501465 -2
      vertex -3.5355339050292969 -3.5355339050292969 0
      vertex -4.2677669525146484 -1.7677669525146484 0
    endloop
  endfacet
  facet normal -0.67859830030353818 -0.28108483111169136 -0.67859830868051896
    outer loop
      vertex -4.2677669525146484 -1.7677669525146484 0
      vertex -2.4142136573791504 -1.4142135381698608 -2
      vertex -2.1213202476501465 -2.1213202476501465 -2
    endloop
  endfacet
  facet normal -0.67859836281868291 -0.28108462729667522 -0.67859833058834784
    outer loop
      vertex -4 1.9900511023636733e-16 -1
      vertex -2.4142136573791504 -1.4142135381698608 -2
      vertex -4.2677669525146484 -1.7677669525146484 0
    endloop
  endfacet
  facet normal -0.28108462921201016 -0.67859832342621162 -0.67859836918746086
    outer loop
      vertex -2.1213202476501465 -2.1213202476501465 -2
      vertex -1.7677669525146484 -4.2677669525146484 0
      vertex -3.5355339050292969 -3.5355339050292969 0
    endloop
  endfacet
  facet normal -0.28108483111169136 -0.67859830030353818 -0.67859830868051896
    outer loop
      vertex -1.7677669525146484 -4.2677669525146484 0
      vertex -2.1213202476501465 -2.1213202476501465 -2
      vertex -1.4142135381698608 -2.4142136573791504 -2
    endloop
  endfacet
  facet normal -0.28108462729667527 -0.67859836281868291 -0.67859833058834773
    outer loop
      vertex -1.4142135381698608 -2.4142136573791504 -2
      vertex 0 -4 -1
      vertex -1.7677669525146484 -4.2677669525146484 0
    endloop
  endfacet
  facet normal -0.28108460015928582 -0.67859835232385235 -0.67859835232385235
    outer loop
      vertex -1.4142135381698608 -2.4142136573791504 -2
      vertex -0.70710676908493042 -2.7071068286895752 -2
      vertex 0 -4 -1
    endloop
  endfacet
  facet normal -0.28108460015928577 -0.67859835232385235 -0.67859835232385235
    outer loop
      vertex 0 -4 -1
      vertex -0.70710676908493042 -2.7071068286895752 -2
      vertex 0 -3 -2
    endloop
  endfacet
  facet normal -0.2810846379406744 -0.67859834449907108 -0.67859834449907108
    outer loop
      vertex 0 -5 0
      vertex -1.7677669525146484 -4.2677669525146484 0
      vertex 0 -4 -1
    endloop
  endfacet
  facet normal 0.28108463109810361 -0.67859835627596432 -0.67859833555646343
    outer loop
      vertex 1.7677669525146484 -4.2677669525146484 0
      vertex 0 -4 -1
      vertex 0.70710676908493042 -2.7071068286895752 -2
    endloop
  endfacet
  facet normal 0.28108460015928577 -0.67859835232385235 -0.67859835232385235
    outer loop
      vertex 0 -4 -1
      vertex 0 -3 -2
      vertex 0.70710676908493042 -2.7071068286895752 -2
    endloop
  endfacet
  facet normal 0.2810846379406744 -0.67859834449907108 -0.67859834449907108
    outer loop
      vertex 1.7677669525146484 -4.2677669525146484 0
      vertex 0 -5 0
      vertex 0 -4 -1
    endloop
  endfacet
  facet normal 0.28108462921201016 -0.67859832342621162 -0.67859836918746086
    outer loop
      vertex 2.8284270763397217 -2.8284270763397217 -1
      vertex 3.5355339050292969 -3.5355339050292969 0
      vertex 1.7677669525146484 -4.2677669525146484 0
    endloop
  endfacet
  facet normal 0.28108479545761828 -0.67859821422705646 -0.67859840952539718
    outer loop
      vertex 2.1213202476501465 -2.1213202476501465 -2
      vertex 2.8284270763397217 -2.8284270763397217 -1
      vertex 1.4142135381698608 -2.4142136573791504 -2
    endloop
  endfacet
  facet normal 0.28108469708450556 -0.67859834141302022 -0.67859832308694235
    outer loop
      vertex 1.7677669525146484 -4.2677669525146484 0
      vertex 1.4142135381698608 -2.4142136573791504 -2
      vertex 2.8284270763397217 -2.8284270763397217 -1
    endloop
  endfacet
  facet normal 0.28108460707548028 -0.67859836902102533 -0.67859833276189763
    outer loop
      vertex 0.70710676908493042 -2.7071068286895752 -2
      vertex 1.4142135381698608 -2.4142136573791504 -2
      vertex 1.7677669525146484 -4.2677669525146484 0
    endloop
  endfacet
  facet normal 0.67859834141302022 -0.28108469708450556 -0.67859832308694235
    outer loop
      vertex 4.2677669525146484 -1.7677669525146484 0
      vertex 2.8284270763397217 -2.8284270763397217 -1
      vertex 2.4142136573791504 -1.4142135381698608 -2
    endloop
  endfacet
  facet normal 0.67859821422705646 -0.28108479545761828 -0.67859840952539718
    outer loop
      vertex 2.8284270763397217 -2.8284270763397217 -1
      vertex 2.1213202476501465 -2.1213202476501465 -2
      vertex 2.4142136573791504 -1.4142135381698608 -2
    endloop
  endfacet
  facet normal 0.67859832342621162 -0.28108462921201016 -0.67859836918746086
    outer loop
      vertex 4.2677669525146484 -1.7677669525146484 0
      vertex 3.5355339050292969 -3.5355339050292969 0
      vertex 2.8284270763397217 -2.8284270763397217 -1
    endloop
  endfacet
  facet normal 0.67859834449907108 -0.28108463794067451 -0.67859834449907119
    outer loop
      vertex 4 -7.3579316908257714e-16 -1
      vertex 5 -9.1848504679464728e-16 0
      vertex 4.2677669525146484 -1.7677669525146484 0
    endloop
  endfacet
  facet normal 0.67859835232385224 -0.28108460015928599 -0.67859835232385224
    outer loop
      vertex 3 -5.53101291370507e-16 -2
      vertex 4 -7.3579316908257714e-16 -1
      vertex 2.7071068286895752 -0.70710676908493042 -2
    endloop
  endfacet
  facet normal 0.67859835627596432 -0.28108463109810372 -0.67859833555646343
    outer loop
      vertex 4.2677669525146484 -1.7677669525146484 0
      vertex 2.7071068286895752 -0.70710676908493042 -2
      vertex 4 -7.3579316908257714e-16 -1
    endloop
  endfacet
  facet normal 0.67859836902102533 -0.28108460707548028 -0.67859833276189763
    outer loop
      vertex 2.4142136573791504 -1.4142135381698608 -2
      vertex 2.7071068286895752 -0.70710676908493042 -2
      vertex 4.2677669525146484 -1.7677669525146484 0
    endloop
  endfacet
  facet normal 0.67859835232385246 0.28108460015928594 -0.67859835232385213
    outer loop
      vertex 2.4142136573791504 1.4142135381698608 -2
      vertex 4 -7.3579316908257714e-16 -1
      vertex 2.7071068286895752 0.70710676908493042 -2
    endloop
  endfacet
  facet normal 0.67859835232385235 0.28108460015928555 -0.67859835232385235
    outer loop
      vertex 4 -7.3579316908257714e-16 -1
      vertex 3 -5.53101291370507e-16 -2
      vertex 2.7071068286895752 0.70710676908493042 -2
    endloop
  endfacet
  facet normal 0.67859834449907119 0.28108463794067429 -0.67859834449907108
    outer loop
      vertex 4.2677669525146484 1.7677669525146484 0
      vertex 5 -9.1848504679464728e-16 0
      vertex 4 -7.3579316908257714e-16 -1
    endloop
  endfacet
  facet normal 0.6785983150719479 0.28108464193060567 -0.67859837227350961
    outer loop
      vertex 4 -7.3579316908257714e-16 -1
      vertex 2.1213202476501465 2.1213202476501465 -2
      vertex 3.5355339050292969 3.5355339050292969 0
    endloop
  endfacet
  facet normal 0.67859846859896489 0.28108490082199217 -0.67859811151006777
    outer loop
      vertex 2.1213202476501465 2.1213202476501465 -2
      vertex 4 -7.3579316908257714e-16 -1
      vertex 2.4142136573791504 1.4142135381698608 -2
    endloop
  endfacet
  facet normal 0.67859834449907108 0.28108463794067434 -0.67859834449907108
    outer loop
      vertex 3.5355339050292969 3.5355339050292969 0
      vertex 4.2677669525146484 1.7677669525146484 0
      vertex 4 -7.3579316908257714e-16 -1
    endloop
  endfacet
  facet normal 0.28108483111169136 0.67859830030353818 -0.67859830868051896
    outer loop
      vertex 1.4142135381698608 2.4142136573791504 -2
      vertex 1.7677669525146484 4.2677669525146484 0
      vertex 2.1213202476501465 2.1213202476501465 -2
    endloop
  endfacet
  facet normal 0.28108462921201016 0.67859832342621162 -0.67859836918746086
    outer loop
      vertex 3.5355339050292969 3.5355339050292969 0
      vertex 2.1213202476501465 2.1213202476501465 -2
      vertex 1.7677669525146484 4.2677669525146484 0
    endloop
  endfacet
  facet normal 0.2810846379406744 0.67859834449907108 -0.67859834449907108
    outer loop
      vertex 0 3 -2
      vertex 0 5 0
      vertex 1.7677669525146484 4.2677669525146484 0
    endloop
  endfacet
  facet normal 0.28108460707548028 0.67859836902102533 -0.67859833276189763
    outer loop
      vertex 1.7677669525146484 4.2677669525146484 0
      vertex 0.70710676908493042 2.7071068286895752 -2
      vertex 0 3 -2
    endloop
  endfacet
  facet normal 0.28108460707548028 0.67859836902102533 -0.67859833276189763
    outer loop
      vertex 1.4142135381698608 2.4142136573791504 -2
      vertex 0.70710676908493042 2.7071068286895752 -2
      vertex 1.7677669525146484 4.2677669525146484 0
    endloop
  endfacet
  facet normal 0 -0 -1
    outer loop
      vertex 0 0 -2
      vertex 1.1102230246251565e-16 1.5 -2
      vertex 1.5 1.5 -2
    endloop
  endfacet
  facet normal 0 0 -1
    outer loop
      vertex 0 0 -2
      vertex 1.5 1.5 -2
      vertex 1.5 5.5511151231257827e-16 -2
    endloop
  endfacet
  facet normal -0 0 -1
    outer loop
      vertex 2.2204460492503131e-16 -1.5 -2
      vertex 0 0 -2
      vertex 1.5 5.5511151231257827e-16 -2
    endloop
  endfacet
  facet normal -0 0 -1
    outer loop
      vertex 2.2204460492503131e-16 -1.5 -2
      vertex 1.5 5.5511151231257827e-16 -2
      vertex 1.5 -1.5 -2
    endloop
  endfacet
  facet normal 0 -0 -1
    outer loop
      vertex -1.5 4.4408920985006262e-16 -2
      vertex -1.5 1.5 -2
      vertex 1.1102230246251565e-16 1.5 -2
    endloop
  endfacet
  facet normal 0 0 -1
    outer loop
      vertex -1.5 4.4408920985006262e-16 -2
      vertex 1.1102230246251565e-16 1.5 -2
      vertex 0 0 -2
    endloop
  endfacet
  facet normal -0 0 -1
    outer loop
      vertex -1.5 -1.5 -2
      vertex -1.5 4.4408920985006262e-16 -2
      vertex 0 0 -2
    endloop
  endfacet
  facet normal -0 0 -1
    outer loop
      vertex -1.5 -1.5 -2
      vertex 0 0 -2
      vertex 2.2204460492503131e-16 -1.5 -2
    endloop
  endfacet
  facet normal -0 -0 -1
    outer loop
      vertex 2.4142136573791504 1.4142135381698608 -2
      vertex 1.5 1.5 -2
      vertex 2.1213202476501465 2.1213202476501465 -2
    endloop
  endfacet
  facet normal 0 0 -1
    outer loop
      vertex 1.4142135381698608 2.4142136573791504 -2
      vertex 2.1213202476501465 2.1213202476501465 -2
      vertex 1.5 1.5 -2
    endloop
  endfacet
  facet normal -0 -0 -1
    outer loop
      vertex 1.5 1.5 -2
      vertex 2.4142136573791504 1.4142135381698608 -2
      vertex 2.7071068286895752 0.70710676908493042 -2
    endloop
  endfacet
  facet normal -0 0 -1
    outer loop
      vertex 1.5 5.5511151231257827e-16 -2
      vertex 1.5 1.5 -2
      vertex 2.7071068286895752 0.70710676908493042 -2
    endloop
  endfacet
  facet normal -0 0 -1
    outer loop
      vertex 1.1102230246251565e-16 1.5 -2
      vertex 0 3 -2
      vertex 0.70710676908493042 2.7071068286895752 -2
    endloop
  endfacet
  facet normal 0 0 -1
    outer loop
      vertex 1.4142135381698608 2.4142136573791504 -2
      vertex 1.5 1.5 -2
      vertex 0.70710676908493042 2.7071068286895752 -2
    endloop
  endfacet
  facet normal -0 0 -1
    outer loop
      vertex 1.1102230246251565e-16 1.5 -2
      vertex 0.70710676908493042 2.7071068286895752 -2
      vertex 1.5 1.5 -2
    endloop
  endfacet
  facet normal -0 -0 -1
    outer loop
      vertex 1.1102230246251565e-16 1.5 -2
      vertex -0.70710676908493042 2.7071068286895752 -2
      vertex 0 3 -2
    endloop
  endfacet
  facet normal 0 -0 -1
    outer loop
      vertex 1.5 -1.5 -2
      vertex 2.7071068286895752 -0.70710676908493042 -2
      vertex 2.4142136573791504 -1.4142135381698608 -2
    endloop
  endfacet
  facet normal 0 0 -1
    outer loop
      vertex 1.5 -1.5 -2
      vertex 2.4142136573791504 -1.4142135381698608 -2
      vertex 2.1213202476501465 -2.1213202476501465 -2
    endloop
  endfacet
  facet normal 0 0 -1
    outer loop
      vertex 1.5 5.5511151231257827e-16 -2
      vertex 3 -5.53101291370507e-16 -2
      vertex 2.7071068286895752 -0.70710676908493042 -2
    endloop
  endfacet
  facet normal 0 0 -1
    outer loop
      vertex 2.7071068286895752 -0.70710676908493042 -2
      vertex 1.5 -1.5 -2
      vertex 1.5 5.5511151231257827e-16 -2
    endloop
  endfacet
  facet normal -0 0 -1
    outer loop
      vertex 1.5 -1.5 -2
      vertex 1.4142135381698608 -2.4142136573791504 -2
      vertex 0.70710676908493042 -2.7071068286895752 -2
    endloop
  endfacet
  facet normal 0 -0 -1
    outer loop
      vertex 0.70710676908493042 -2.7071068286895752 -2
      vertex 2.2204460492503131e-16 -1.5 -2
      vertex 1.5 -1.5 -2
    endloop
  endfacet
  facet normal 0 0 -1
    outer loop
      vertex 2.1213202476501465 -2.1213202476501465 -2
      vertex 1.4142135381698608 -2.4142136573791504 -2
      vertex 1.5 -1.5 -2
    endloop
  endfacet
  facet normal 0 0 -1
    outer loop
      vertex 1.5 5.5511151231257827e-16 -2
      vertex 2.7071068286895752 0.70710676908493042 -2
      vertex 3 -5.53101291370507e-16 -2
    endloop
  endfacet
  facet normal 0 -0 -1
    outer loop
      vertex -1.5 1.5 -2
      vertex -1.4142135381698608 2.4142136573791504 -2
      vertex -0.70710676908493042 2.7071068286895752 -2
    endloop
  endfacet
  facet normal -0 -0 -1
    outer loop
      vertex -2.7071068286895752 0.70710676908493042 -2
      vertex -1.5 1.5 -2
      vertex -1.5 4.4408920985006262e-16 -2
    endloop
  endfacet
  facet normal -0 0 -1
    outer loop
      vertex -1.5 1.5 -2
      vertex -2.1213202476501465 2.1213202476501465 -2
      vertex -1.4142135381698608 2.4142136573791504 -2
    endloop
  endfacet
  facet normal 0 -0 -1
    outer loop
      vertex -1.5 1.5 -2
      vertex -2.4142136573791504 1.4142135381698608 -2
      vertex -2.1213202476501465 2.1213202476501465 -2
    endloop
  endfacet
  facet normal 0 -0 -1
    outer loop
      vertex -1.5 4.4408920985006262e-16 -2
      vertex -3 9.1848507326442689e-17 -2
      vertex -2.7071068286895752 0.70710676908493042 -2
    endloop
  endfacet
  facet normal -0 0 -1
    outer loop
      vertex -1.5 1.5 -2
      vertex -2.7071068286895752 0.70710676908493042 -2
      vertex -2.4142136573791504 1.4142135381698608 -2
    endloop
  endfacet
  facet normal 0 0 -1
    outer loop
      vertex -2.7071068286895752 -0.70710676908493042 -2
      vertex -3 9.1848507326442689e-17 -2
      vertex -1.5 4.4408920985006262e-16 -2
    endloop
  endfacet
  facet normal -0 -0 -1
    outer loop
      vertex -1.4142135381698608 -2.4142136573791504 -2
      vertex -1.5 -1.5 -2
      vertex -0.70710676908493042 -2.7071068286895752 -2
    endloop
  endfacet
  facet normal 0 -0 -1
    outer loop
      vertex 2.2204460492503131e-16 -1.5 -2
      vertex -0.70710676908493042 -2.7071068286895752 -2
      vertex -1.5 -1.5 -2
    endloop
  endfacet
  facet normal 0 -0 -1
    outer loop
      vertex 2.2204460492503131e-16 -1.5 -2
      vertex 0 -3 -2
      vertex -0.70710676908493042 -2.7071068286895752 -2
    endloop
  endfacet
  facet normal 0 0 -1
    outer loop
      vertex 0.70710676908493042 -2.7071068286895752 -2
      vertex 0 -3 -2
      vertex 2.2204460492503131e-16 -1.5 -2
    endloop
  endfacet
  facet normal 0 0 -1
    outer loop
      vertex -1.5 -1.5 -2
      vertex -2.4142136573791504 -1.4142135381698608 -2
      vertex -2.7071068286895752 -0.70710676908493042 -2
    endloop
  endfacet
  facet normal -0 -0 -1
    outer loop
      vertex -1.4142135381698608 -2.4142136573791504 -2
      vertex -2.1213202476501465 -2.1213202476501465 -2
      vertex -1.5 -1.5 -2
    endloop
  endfacet
  facet normal 0 0 -1
    outer loop
      vertex -2.4142136573791504 -1.4142135381698608 -2
      vertex -1.5 -1.5 -2
      vertex -2.1213202476501465 -2.1213202476501465 -2
    endloop
  endfacet
  facet normal -0 -0 -1
    outer loop
      vertex -1.5 -1.5 -2
      vertex -2.7071068286895752 -0.70710676908493042 -2
      vertex -1.5 4.4408920985006262e-16 -2
    endloop
  endfacet
  facet normal -0 0 -1
    outer loop
      vertex -0.70710676908493042 2.7071068286895752 -2
      vertex 1.1102230246251565e-16 1.5 -2
      vertex -1.5 1.5 -2
    endloop
  endfacet
  facet normal -0.2810846379406744 0.67859834449907108 0.67859834449907108
    outer loop
      vertex -1.7677669525146484 4.2677669525146484 0
      vertex 0 2.5 2.5
      vertex 0 5 0
    endloop
  endfacet
  facet normal -0.28108470988791801 0.67859832959830702 0.67859832959830702
    outer loop
      vertex -1.1785112619400024 1.1785112619400024 3.3333332538604736
      vertex 0 0 5
      vertex 0 2.5 2.5
    endloop
  endfacet
  facet normal -0.28108462612596113 0.6785983159758302 0.67859837791612498
    outer loop
      vertex -2.3570225238800049 2.3570225238800049 1.6666666269302368
      vertex -1.7677669525146484 4.2677669525146484 0
      vertex -3.5355339050292969 3.5355339050292969 0
    endloop
  endfacet
  facet normal -0.28108468264296083 0.67859831906187795 0.67859835141996894
    outer loop
      vertex -2.3570225238800049 2.3570225238800049 1.6666666269302368
      vertex -1.1785112619400024 1.1785112619400024 3.3333332538604736
      vertex 0 2.5 2.5
    endloop
  endfacet
  facet normal -0.28108468384813778 0.67859831434455731 0.67859835563808857
    outer loop
      vertex -1.7677669525146484 4.2677669525146484 0
      vertex -2.3570225238800049 2.3570225238800049 1.6666666269302368
      vertex 0 2.5 2.5
    endloop
  endfacet
  facet normal -0.67859834269130559 0.28108464666933902 0.67859834269130559
    outer loop
      vertex -3.3333332538604736 2.0410779552930484e-16 1.6666666269302368
      vertex -1.1785112619400024 1.1785112619400024 3.3333332538604736
      vertex -2.3570225238800049 2.3570225238800049 1.6666666269302368
    endloop
  endfacet
  facet normal -0.67859836504244753 0.28108465592748544 0.67859831650531244
    outer loop
      vertex -1.6666666269302368 1.0205389776465242e-16 3.3333332538604736
      vertex 0 0 5
      vertex -1.1785112619400024 1.1785112619400024 3.3333332538604736
    endloop
  endfacet
  facet normal -0.6785983159758302 0.28108462612596113 0.67859837791612498
    outer loop
      vertex -4.2677669525146484 1.7677669525146484 0
      vertex -2.3570225238800049 2.3570225238800049 1.6666666269302368
      vertex -3.5355339050292969 3.5355339050292969 0
    endloop
  endfacet
  facet normal -0.67859832214792792 0.28108462868252776 0.67859837068506335
    outer loop
      vertex -3.3333332538604736 2.0410779552930484e-16 1.6666666269302368
      vertex -4.2677669525146484 1.7677669525146484 0
      vertex -5 3.0616169991140216e-16 0
    endloop
  endfacet
  facet normal -0.67859834269130548 0.28108464666933897 0.67859834269130548
    outer loop
      vertex -3.3333332538604736 2.0410779552930484e-16 1.6666666269302368
      vertex -1.6666666269302368 1.0205389776465242e-16 3.3333332538604736
      vertex -1.1785112619400024 1.1785112619400024 3.3333332538604736
    endloop
  endfacet
  facet normal -0.67859831571108908 0.28108463549376705 0.67859837430059422
    outer loop
      vertex -4.2677669525146484 1.7677669525146484 0
      vertex -3.3333332538604736 2.0410779552930484e-16 1.6666666269302368
      vertex -2.3570225238800049 2.3570225238800049 1.6666666269302368
    endloop
  endfacet
  facet normal -0.67859832214792781 -0.2810846286825277 0.67859837068506335
    outer loop
      vertex -3.3333332538604736 2.0410779552930484e-16 1.6666666269302368
      vertex -5 3.0616169991140216e-16 0
      vertex -4.2677669525146484 -1.7677669525146484 0
    endloop
  endfacet
  facet normal -0.67859834269130548 -0.28108464666933897 0.67859834269130548
    outer loop
      vertex -3.3333332538604736 2.0410779552930484e-16 1.6666666269302368
      vertex -2.3570225238800049 -2.3570225238800049 1.6666666269302368
      vertex -1.6666666269302368 1.0205389776465242e-16 3.3333332538604736
    endloop
  endfacet
  facet normal -0.67859831571108897 -0.281084635493767 0.67859837430059422
    outer loop
      vertex -2.3570225238800049 -2.3570225238800049 1.6666666269302368
      vertex -3.3333332538604736 2.0410779552930484e-16 1.6666666269302368
      vertex -4.2677669525146484 -1.7677669525146484 0
    endloop
  endfacet
  facet normal -0.6785983159758302 -0.28108462612596113 0.67859837791612498
    outer loop
      vertex -4.2677669525146484 -1.7677669525146484 0
      vertex -3.5355339050292969 -3.5355339050292969 0
      vertex -2.3570225238800049 -2.3570225238800049 1.6666666269302368
    endloop
  endfacet
  facet normal -0.67859836504244753 -0.28108465592748544 0.67859831650531244
    outer loop
      vertex -1.6666666269302368 1.0205389776465242e-16 3.3333332538604736
      vertex -1.1785112619400024 -1.1785112619400024 3.3333332538604736
      vertex 0 0 5
    endloop
  endfacet
  facet normal -0.67859834269130559 -0.28108464666933902 0.67859834269130559
    outer loop
      vertex -1.6666666269302368 1.0205389776465242e-16 3.3333332538604736
      vertex -2.3570225238800049 -2.3570225238800049 1.6666666269302368
      vertex -1.1785112619400024 -1.1785112619400024 3.3333332538604736
    endloop
  endfacet
  facet normal -0.28108462612596113 -0.6785983159758302 0.67859837791612498
    outer loop
      vertex -1.7677669525146484 -4.2677669525146484 0
      vertex -2.3570225238800049 -2.3570225238800049 1.6666666269302368
      vertex -3.5355339050292969 -3.5355339050292969 0
    endloop
  endfacet
  facet normal -0.28108469009334225 -0.67859831416806293 0.67859835322773432
    outer loop
      vertex -1.7677669525146484 -4.2677669525146484 0
      vertex -1.1785112619400024 -1.1785112619400024 3.3333332538604736
      vertex -2.3570225238800049 -2.3570225238800049 1.6666666269302368
    endloop
  endfacet
  facet normal -0.2810846379406744 -0.67859834449907108 0.67859834449907108
    outer loop
      vertex 0 -2.5 2.5
      vertex -1.7677669525146484 -4.2677669525146484 0
      vertex 0 -5 0
    endloop
  endfacet
  facet normal -0.28108470988791801 -0.67859832959830702 0.67859832959830702
    outer loop
      vertex 0 -2.5 2.5
      vertex 0 0 5
      vertex -1.1785112619400024 -1.1785112619400024 3.3333332538604736
    endloop
  endfacet
  facet normal -0.28108467888121702 -0.67859831760710065 0.67859835443291172
    outer loop
      vertex -1.7677669525146484 -4.2677669525146484 0
      vertex 0 -2.5 2.5
      vertex -1.1785112619400024 -1.1785112619400024 3.3333332538604736
    endloop
  endfacet
  facet normal 0.2810846379406744 -0.67859834449907108 0.67859834449907108
    outer loop
      vertex 1.7677669525146484 -4.2677669525146484 0
      vertex 0 -2.5 2.5
      vertex 0 -5 0
    endloop
  endfacet
  facet normal 0.2810846379406744 -0.67859834449907108 0.67859834449907108
    outer loop
      vertex 1.7677669525146484 -1.7677669525146484 2.5
      vertex 0 0 5
      vertex 0 -2.5 2.5
    endloop
  endfacet
  facet normal 0.2810846379406744 -0.67859834449907108 0.67859834449907108
    outer loop
      vertex 1.7677669525146484 -1.7677669525146484 2.5
      vertex 1.7677669525146484 -4.2677669525146484 0
      vertex 3.5355339050292969 -3.5355339050292969 0
    endloop
  endfacet
  facet normal 0.2810846379406744 -0.67859834449907108 0.67859834449907108
    outer loop
      vertex 0 -2.5 2.5
      vertex 1.7677669525146484 -4.2677669525146484 0
      vertex 1.7677669525146484 -1.7677669525146484 2.5
    endloop
  endfacet
  facet normal 0.67859834449907108 -0.2810846379406744 0.67859834449907108
    outer loop
      vertex 1.7677669525146484 -1.7677669525146484 2.5
      vertex 3.5355339050292969 -3.5355339050292969 0
      vertex 4.2677669525146484 -1.7677669525146484 0
    endloop
  endfacet
  facet normal 0.67859834449907108 -0.28108463794067445 0.67859834449907108
    outer loop
      vertex 2.5 -4.5924252339732364e-16 2.5
      vertex 1.7677669525146484 -1.7677669525146484 2.5
      vertex 4.2677669525146484 -1.7677669525146484 0
    endloop
  endfacet
  facet normal 0.67859834449907108 -0.2810846379406744 0.67859834449907108
    outer loop
      vertex 1.7677669525146484 -1.7677669525146484 2.5
      vertex 2.5 -4.5924252339732364e-16 2.5
      vertex 0 0 5
    endloop
  endfacet
  facet normal 0.67859834449907108 -0.28108463794067445 0.67859834449907108
    outer loop
      vertex 4.2677669525146484 -1.7677669525146484 0
      vertex 5 -9.1848504679464728e-16 0
      vertex 2.5 -4.5924252339732364e-16 2.5
    endloop
  endfacet
  facet normal 0.6785983444990713 0.28108463794067434 0.67859834449907119
    outer loop
      vertex 4.2677669525146484 1.7677669525146484 0
      vertex 2.5 -4.5924252339732364e-16 2.5
      vertex 5 -9.1848504679464728e-16 0
    endloop
  endfacet
  facet normal 0.67859834449907119 0.28108463794067434 0.67859834449907108
    outer loop
      vertex 1.7677669525146484 1.7677669525146484 2.5
      vertex 0 0 5
      vertex 2.5 -4.5924252339732364e-16 2.5
    endloop
  endfacet
  facet normal 0.67859834449907108 0.2810846379406744 0.67859834449907108
    outer loop
      vertex 1.7677669525146484 1.7677669525146484 2.5
      vertex 4.2677669525146484 1.7677669525146484 0
      vertex 3.5355339050292969 3.5355339050292969 0
    endloop
  endfacet
  facet normal 0.67859834449907108 0.28108463794067429 0.67859834449907108
    outer loop
      vertex 2.5 -4.5924252339732364e-16 2.5
      vertex 4.2677669525146484 1.7677669525146484 0
      vertex 1.7677669525146484 1.7677669525146484 2.5
    endloop
  endfacet
  facet normal 0.2810846379406744 0.67859834449907108 0.67859834449907108
    outer loop
      vertex 1.7677669525146484 1.7677669525146484 2.5
      vertex 3.5355339050292969 3.5355339050292969 0
      vertex 1.7677669525146484 4.2677669525146484 0
    endloop
  endfacet
  facet normal 0.2810846379406744 0.67859834449907108 0.67859834449907108
    outer loop
      vertex 0 2.5 2.5
      vertex 1.7677669525146484 1.7677669525146484 2.5
      vertex 1.7677669525146484 4.2677669525146484 0
    endloop
  endfacet
  facet normal 0.2810846379406744 0.67859834449907108 0.67859834449907108
    outer loop
      vertex 1.7677669525146484 1.7677669525146484 2.5
      vertex 0 2.5 2.5
      vertex 0 0 5
    endloop
  endfacet
  facet normal 0.2810846379406744 0.67859834449907108 0.67859834449907108
    outer loop
      vertex 1.7677669525146484 4.2677669525146484 0
      vertex 0 5 0
      vertex 0 2.5 2.5
    endloop
  endfacet
endsolid OBJECT
